<svg xmlns="http://www.w3.org/2000/svg" fill="none" viewBox="0 0 100 100" style="width: 100%; height: 100%; display: block;"><g clip-path="url(#R0-a)"><path fill="url(#R0-b)" d="M66.063 71.342c-8.717 3.85-18.159 2.27-21.792 1 0 .875-.042 3.57-.2 7.417-.158 3.85-1.383 6.279-1.98 7.016.067 2.404.121 7.654-.195 9.417A8.04 8.04 0 0 1 39.913 100h-5.35c.474-2.404 2.312-3.941 3.17-4.408.475-4.97-.458-9.287-.991-10.82-.525 1.87-1.821 6.207-2.771 8.616A26.7 26.7 0 0 1 31 98.8h-3.962c-.2-2.408 1.125-3.208 1.979-3.208.396-.737 1.346-3.046 1.983-6.417.633-3.362-.267-9.683-.792-12.42v-8.617c-6.341-3.409-8.716-6.817-10.304-10.625-1.267-3.042-.925-7.68-.591-9.617-.4-.733-1.555-2.604-1.984-5.208-.591-3.608-.262-6.213 0-7.617-.396-.4-1.187-2.446-1.187-7.416 0-4.967 1.454-7.546 2.179-8.217v-2.204c-2.775-.2-5.546-1.4-7.134-3.005-1.583-1.604-.395-4.008.596-4.808.992-.804 1.98-.204 3.367-.604s2.575-.8 3.167-2c.483-.97-.454-4.95-.984-6.817 2.375.321 3.896 2.405 4.359 3.409V0c2.97 1.405 8.32 4.809 10.104 12.225 1.425 5.934 2.441 18.371 2.77 23.846 7.596.067 17.238-1.083 25.955.804 7.92 1.717 11.487 5.209 15.646 5.209 4.162 0 6.541-2.405 9.508-.4 2.975 2.004 4.558 7.616 4.163 11.825-.317 3.366-2.905 4.475-4.159 4.608-1.583 5.292 0 10.354.988 12.225v7.612c.462.667 1.387 2.73 1.387 5.613 0 2.888-.925 4.808-1.387 5.413.791 4.487-.334 9.083-.992 10.82h-5.346c.634-1.604 1.717-2.004 2.18-2.004.95-4.97.262-9.554-.2-11.22-3.009-1.767-4.95-4.876-5.546-6.213.066 1.133-.121 4.287-1.388 7.812-1.267 3.53-3.167 5.613-3.958 6.213v4.208h-5.35c0-2.562 1.45-3.07 2.179-3.004.925-1.667 3.166-4.208 3.166-9.217 0-4.229-2.97-6.216-5.15-10.02-1.033-1.809-.529-4.076-.195-5.013z"/></g><defs><linearGradient id="R0-b" x1="16.754" x2="102.554" y1="8.417" y2="80.321" gradientUnits="userSpaceOnUse"><stop offset=".062" stop-color="#f6dcd9"/><stop offset=".326" stop-color="#ffa5ea"/><stop offset=".589" stop-color="#45dff8"/><stop offset="1" stop-color="#bc8deb"/></linearGradient><clipPath id="R0-a"><path fill="#fff" d="M0 0h100v100H0z"/></clipPath></defs></svg>