<svg xmlns="http://www.w3.org/2000/svg" fill="none" viewBox="0 0 100 100" style="width: 100%; height: 100%; display: block;"><g clip-path="url(#R0-a)"><path fill="url(#R0-b)" d="M29.121 16.815.26 74.24a2.404 2.404 0 0 0 1.07 3.225l15.555 7.816a2.406 2.406 0 0 0 3.229-1.067L48.97 26.79a2.405 2.405 0 0 0-1.07-3.23l-15.555-7.812a2.395 2.395 0 0 0-3.225 1.07z"/><path fill="url(#R0-c)" d="M80.187 15.967H97.6a2.41 2.41 0 0 1 2.404 2.404v64.27A2.41 2.41 0 0 1 97.6 85.05H80.187a2.41 2.41 0 0 1-2.404-2.408V18.375a2.41 2.41 0 0 1 2.404-2.408"/><path fill="url(#R0-d)" d="M53.396 17.023 41.042 79.618a2.4 2.4 0 0 0 1.887 2.821l17.063 3.442a2.404 2.404 0 0 0 2.837-1.892l12.35-62.591a2.404 2.404 0 0 0-1.887-2.821L56.225 15.13a2.4 2.4 0 0 0-2.474 1.022 2.4 2.4 0 0 0-.355.87"/></g><defs><linearGradient id="R0-b" x1="6.25" x2="50" y1="81.248" y2="-.002" gradientUnits="userSpaceOnUse"><stop stop-color="#f0f"/><stop offset=".17" stop-color="#e90cf9"/><stop offset=".54" stop-color="#c023ed"/><stop offset=".73" stop-color="#b02de9"/><stop offset="1" stop-color="#b02de9"/></linearGradient><linearGradient id="R0-c" x1="0" x2="100" y1="100" y2="0" gradientUnits="userSpaceOnUse"><stop stop-color="#b02de9"/><stop offset=".02" stop-color="#b02de9"/><stop offset=".8" stop-color="#6d00cc"/><stop offset="1" stop-color="#6d00cc"/></linearGradient><linearGradient id="R0-d" x1="0" x2="100" y1="100.002" y2=".002" gradientUnits="userSpaceOnUse"><stop stop-color="#f0f"/><stop offset=".02" stop-color="#f0f"/><stop offset=".09" stop-color="#e90cf9"/><stop offset=".23" stop-color="#c023ed"/><stop offset=".3" stop-color="#b02de9"/><stop offset=".42" stop-color="#a42be3"/><stop offset=".63" stop-color="#8626d5"/><stop offset=".85" stop-color="#6021c3"/><stop offset="1" stop-color="#6021c3"/></linearGradient><clipPath id="R0-a"><path fill="#fff" d="M0 0h100v100H0z"/></clipPath></defs></svg>