<svg xmlns="http://www.w3.org/2000/svg" fill="none" viewBox="0 0 100 100" style="width: 100%; height: 100%; display: block;"><ellipse cx="50" cy="50" rx="49" ry="26" fill="#8993be"/><ellipse cx="50" cy="50" rx="46" ry="23" fill="#777bb4"/><g fill="#fff"><path d="M22.5 39.5h9.7c2.85 0 4.93.75 6.24 2.25 1.31 1.5 1.7 3.59 1.18 6.26-.27 1.37-.74 2.62-1.41 3.75a11.3 11.3 0 0 1-2.68 3.07c-1.32 1.03-2.78 1.71-4.36 2.02-1.58.31-3.22.47-4.92.47h-4.33l-1.36 7.18h-5.04l6.96-25zm4.24 4.06-2.91 14.94c.19.02.38.03.57.03h.66c2.68 0 4.91-.27 6.7-.79 1.79-.53 2.99-2.4 3.62-5.6.51-2.62.06-4.13-1.34-4.54-1.4-.41-3.16-.61-5.27-.61-.28 0-.57.01-.85.01h-.79l-.39-2.85z"/><path d="M44.7 33h5.01l-1.42 7.18h4.47c2.45.04 4.27.55 5.48 1.51 1.21.97 1.57 2.81 1.08 5.51l-2.4 11.94h-5.08l2.28-11.39c.27-1.37.18-2.34-.27-2.91-.45-.57-1.41-.86-2.88-.86l-4.01-.04-3.04 15.2h-5.01l5.8-25z"/><path d="M67 39.5h9.7c2.85 0 4.93.75 6.24 2.25 1.31 1.5 1.7 3.59 1.18 6.26-.27 1.37-.74 2.62-1.41 3.75a11.3 11.3 0 0 1-2.68 3.07c-1.32 1.03-2.78 1.71-4.36 2.02-1.58.31-3.22.47-4.92.47h-4.33l-1.36 7.18h-5.04l6.96-25zm4.24 4.06-2.91 14.94c.19.02.38.03.57.03h.66c2.68 0 4.91-.27 6.7-.79 1.79-.53 2.99-2.4 3.62-5.6.51-2.62.06-4.13-1.34-4.54-1.4-.41-3.16-.61-5.27-.61-.28 0-.57.01-.85.01h-.79l-.39-2.85z"/></g></svg>
